<svg version="1.1" viewBox="0 0 1500 500" xml:space="preserve" xmlns="http://www.w3.org/2000/svg" xmlns:xlink="http://www.w3.org/1999/xlink">
	<title>Danish eMotorsport Series</title>
	<defs>
		<clipPath id="clipTire">
			<path d="M 60,342 H 980 l -15, 90 H 45Z"/>
		</clipPath>
	</defs>
	<path fill="#f00" d="m1427.4 168.35c19.487 3.909 16.291 23.688 15.838 35.547-0.061 1.6001-6.6959 1.5886-9.1104 0 1.5591-14.417 2.1351-23.727-6.7275-35.547z"/>
	<path fill="#ffc000" d="m58.487 251.83c18.08-14.492 38.538-25.605 60-34.244 4.4-1.6856 7.8549-3.4655 8.365-4.1845 0.51013-0.71897 1.9039-1.0808 2.4098-0.57494 3.8512 3.8512-36.16 41.951-42.775 40.732-9.3178-0.77545-18.664-1.2099-28-1.7293z"/>
	<path fill="#f00" d="m118.05 335.79h-58.48l12.7-63.47h61.11q2.54 0 4.62 1.09 2.18 1 3.54 2.81 1.45 1.72 2.09 3.99 0.63 2.27 0.18 4.71l-7.16 35.54q-0.63 3.35-2.36 6.17-1.72 2.81-4.17 4.9-2.45 1.99-5.53 3.17-3.08 1.09-6.53 1.09zm-0.18-16.5 5.89-29.65q0.18-1-0.45-1.72-0.54-0.82-1.54-0.82h-43.97l9.88 3.17-6.07 30.74h34.18q0.73 0 1.27-0.45 0.63-0.54 0.82-1.27zm52.5-1.45-3.63 17.95h-19.04l10.97-54.94q0.73-3.81 3.63-6.17 2.99-2.36 6.8-2.36h43.97q2.54 0 4.62 1.09 2.18 1 3.54 2.81 1.45 1.72 2.09 3.99 0.63 2.27 0.09 4.71l-10.15 50.86h-19.04l3.63-17.95zm30.46-14.87 2.63-13.33q0.18-1-0.45-1.72-0.63-0.82-1.63-0.82h-36.09l10.52 3.17-2.54 12.69zm92.03-30.65h19.04l-12.69 63.47h-32.73l-10.06-50.23h-11.24l10.61 3.17-9.43 47.06h-19.04l12.69-63.47h32.82l10.06 50.23zm22.76 63.47 12.69-63.47h19.04l-2.99 14.78h-11.15l10.52 3.17-9.07 45.51zm33.37-13.96 1-5.08h19.04l-0.36 1.72q-0.18 1 0.45 1.81 0.63 0.73 1.63 0.73h35.72l-10.61-3.17 1-4.9q0.18-1-0.45-1.72-0.63-0.82-1.63-0.82h-29.38q-2.72 0-5.08-1.18t-3.9-3.08-2.27-4.44q-0.63-2.54-0.09-5.26l2.9-14.78q0.82-4.08 3.99-6.71 3.26-2.63 7.43-2.63h41.89q2.72 0 5.08 1.18t3.9 3.08 2.27 4.44q0.73 2.45 0.18 5.17l-1.09 5.17h-19.04l0.36-1.72q0.18-1-0.45-1.72-0.63-0.82-1.63-0.82h-36.09l10.52 3.17-0.73 3.81q-0.18 1 0.45 1.81 0.63 0.73 1.63 0.73h24.03q2.72 0 4.44 0l1.72 0.09q2.63 0.18 4.71 1.45 2.18 1.18 3.63 3.08t2.09 4.35q0.63 2.36 0.09 4.99l-3.17 15.87q-0.82 4.08-4.08 6.71-3.17 2.63-7.34 2.63h-41.44q-2.72 0-5.08-1.18t-3.9-3.08-2.27-4.44q-0.63-2.54-0.09-5.26zm132.28-10.34h-42.98l10.61 3.17-4.26 21.13h-19.04l12.69-63.47h19.04l-4.9 24.3h31.73l4.9-24.3h19.04l-12.69 63.47h-19.04zm68.36-24.39 10.61 3.17-1.36 6.89h33.91l-2.72 13.78h-34l-1.45 7.53q-0.18 1 0.45 1.81 0.63 0.73 1.63 0.73h37.54l-2.9 14.78h-46.33q-2.54 0-4.71-1-2.09-1.09-3.54-2.81-1.36-1.81-1.99-4.08-0.63-2.36-0.18-4.81l10.15-50.77h59.3l-2.99 14.78zm117.78 48.69h-17.96l-11.6-50.78h-11.25l10.52 3.17-9.88 47.6h-19.58l12.69-63.47h34.36l6.89 39.17 19.58-39.17h36.45l-12.69 63.47h-19.49l9.52-50.77zm119.14-63.47q2.45 0 4.53 1.09 2.18 1 3.63 2.81 1.45 1.72 2.09 3.99 0.63 2.27 0.09 4.71l-8.43 42.34q-0.73 3.81-3.72 6.17-2.9 2.36-6.71 2.36h-46.06q-2.54 0-4.71-1-2.09-1.09-3.54-2.81-1.36-1.81-1.99-4.08-0.63-2.36-0.18-4.81l8.52-42.25q0.73-3.81 3.63-6.17t6.71-2.36zm-49.96 14.78 10.61 3.17-5.62 28.2q-0.18 1 0.45 1.81 0.63 0.73 1.63 0.73h38.17l-10.52-3.17 5.62-28.2q0.18-1-0.45-1.72-0.63-0.82-1.63-0.82zm70.36-14.78h64.74l-2.99 14.78h-32.39l10.61 3.17-9.16 45.51h-21.13l9.7-48.69h-22.39zm130.38 0q2.45 0 4.53 1.09 2.18 1 3.63 2.81 1.45 1.72 2.09 3.99 0.63 2.27 0.09 4.71l-8.43 42.34q-0.73 3.81-3.72 6.17-2.9 2.36-6.71 2.36h-46.06q-2.54 0-4.71-1-2.09-1.09-3.54-2.81-1.36-1.81-1.99-4.08-0.63-2.36-0.18-4.81l8.52-42.25q0.73-3.81 3.63-6.17t6.71-2.36zm-49.96 14.78 10.61 3.17-5.62 28.2q-0.18 1 0.45 1.81 0.63 0.73 1.63 0.73h38.17l-10.52-3.17 5.62-28.2q0.18-1-0.45-1.72-0.63-0.82-1.63-0.82zm110.07 30.74h-23.21l-3.63 17.95h-19.04l12.69-63.47h61.11q2.54 0 4.62 1.09 2.18 1 3.54 2.81 1.45 1.72 2.09 3.99 0.63 2.27 0.18 4.71l-4.9 24.39q-0.73 3.72-3.63 6.17-2.9 2.36-6.71 2.36h-4.08l8.07 17.95h-19.04zm13.96-14.87q0.73 0 1.27-0.45 0.63-0.45 0.82-1.18l2.27-11.7q0.18-1-0.45-1.72-0.54-0.82-1.54-0.82h-44.61l10.52 3.17-2.54 12.69zm28.29 32.82 2.99-14.78h57.3l-10.61-3.17 1-4.9q0.18-1-0.45-1.72-0.63-0.82-1.63-0.82h-29.29q-2.72 0-5.08-1.18t-3.99-3.08q-1.54-1.9-2.27-4.44-0.63-2.54-0.09-5.26l2.9-14.78q0.82-4.08 3.99-6.71 3.26-2.63 7.43-2.63h127.11q2.18 0 4.08 0.91t3.17 2.54q1.27 1.54 1.81 3.54 0.54 1.99 0.09 4.17l-5.17 25.84q-0.73 3.72-3.63 6.17-2.9 2.36-6.71 2.36h-46.97l10.52 3.17-2.9 14.78h-19.04l6.53-32.82h42.7q0.73 0 1.27-0.45 0.63-0.45 0.82-1.18l2.27-11.7q0.18-1-0.45-1.72-0.54-0.82-1.54-0.82h-118.59l10.52 3.17-0.73 3.81q-0.18 1 0.45 1.81 0.63 0.73 1.63 0.73h24.03q2.72 0 4.44 0l1.72 0.09q2.63 0.18 4.71 1.45 2.18 1.18 3.63 3.08t2.09 4.35q0.63 2.36 0.09 4.99l-3.17 15.87q-0.82 4.08-4.08 6.71-3.17 2.63-7.34 2.63zm227.48-63.47q2.45 0 4.53 1.09 2.18 1 3.63 2.81 1.45 1.72 2.09 3.99 0.63 2.27 0.09 4.71l-8.43 42.34q-0.73 3.81-3.72 6.17-2.9 2.36-6.71 2.36h-46.06q-2.54 0-4.71-1-2.09-1.09-3.54-2.81-1.36-1.81-1.99-4.08-0.63-2.36-0.18-4.81l8.52-42.25q0.73-3.81 3.63-6.17t6.71-2.36zm-49.96 14.78 10.61 3.17-5.62 28.2q-0.18 1 0.45 1.81 0.63 0.73 1.63 0.73h38.17l-10.52-3.17 5.62-28.2q0.18-1-0.45-1.72-0.63-0.82-1.63-0.82zm110.07 30.74h-23.21l-3.63 17.95h-19.04l12.69-63.47h61.11q2.54 0 4.62 1.09 2.18 1 3.54 2.81 1.45 1.72 2.09 3.99 0.63 2.27 0.18 4.71l-4.9 24.39q-0.73 3.72-3.63 6.17-2.9 2.36-6.71 2.36h-4.08l8.07 17.95h-19.04zm13.96-14.87q0.73 0 1.27-0.45 0.63-0.45 0.82-1.18l2.27-11.7q0.18-1-0.45-1.72-0.54-0.82-1.54-0.82h-44.61l10.52 3.17-2.54 12.69zm34.45-30.65h64.74l-2.99 14.78h-32.37l10.61 3.17-9.16 45.51h-21.13l9.7-48.69h-22.39z"/>
	<path fill="#1db81d" visibility="hidden" d="m96.33 456.35-1.97 9.77h-10.36l5.97-29.9q0.39-2.07 1.97-3.35 1.63-1.28 3.7-1.28h23.93q1.38 0 2.52 0.59 1.18 0.54 1.92 1.53 0.79 0.94 1.13 2.17 0.35 1.23 0.05 2.57l-5.53 27.68h-10.36l1.97-9.77zm16.58-8.09 1.43-7.25q0.1-0.54-0.25-0.94-0.35-0.44-0.89-0.44h-19.63l5.72 1.73-1.38 6.91zm14.55 10.26 0.54-2.76h10.36l-0.2 0.94q-0.1 0.54 0.25 0.99 0.35 0.39 0.89 0.39h19.44l-5.77-1.73 0.54-2.66q0.1-0.54-0.25-0.94-0.35-0.44-0.89-0.44h-15.98q-1.48 0-2.76-0.64t-2.12-1.68-1.23-2.42q-0.35-1.38-0.05-2.86l1.58-8.04q0.44-2.22 2.17-3.65 1.78-1.43 4.05-1.43h22.79q1.48 0 2.76 0.64t2.12 1.68 1.23 2.42q0.39 1.33 0.1 2.81l-0.59 2.81h-10.37l0.2-0.94q0.1-0.54-0.25-0.94-0.35-0.44-0.89-0.44h-19.63l5.72 1.73-0.39 2.07q-0.1 0.54 0.25 0.99 0.35 0.39 0.89 0.39h13.07q1.48 0 2.42 0l0.94 0.05q1.43 0.1 2.57 0.79 1.18 0.64 1.97 1.68t1.13 2.37q0.35 1.28 0.05 2.71l-1.73 8.63q-0.44 2.22-2.22 3.65-1.73 1.43-4 1.43h-22.55q-1.48 0-2.76-0.64t-2.12-1.68-1.23-2.42q-0.35-1.38-0.05-2.86zm41.09 0 0.54-2.76h10.36l-0.2 0.94q-0.1 0.54 0.25 0.99 0.35 0.39 0.89 0.39h19.44l-5.77-1.73 0.54-2.66q0.1-0.54-0.25-0.94-0.35-0.44-0.89-0.44h-15.98q-1.48 0-2.76-0.64t-2.12-1.68-1.23-2.42q-0.35-1.38-0.05-2.86l1.58-8.04q0.44-2.22 2.17-3.65 1.78-1.43 4.05-1.43h22.79q1.48 0 2.76 0.64t2.12 1.68 1.23 2.42q0.39 1.33 0.1 2.81l-0.59 2.81h-10.36l0.2-0.94q0.1-0.54-0.25-0.94-0.35-0.44-0.89-0.44h-19.63l5.72 1.73-0.39 2.07q-0.1 0.54 0.25 0.99 0.35 0.39 0.89 0.39h13.07q1.48 0 2.42 0l0.94 0.05q1.43 0.1 2.57 0.79 1.18 0.64 1.97 1.68t1.13 2.37q0.35 1.28 0.05 2.71l-1.73 8.63q-0.44 2.22-2.22 3.65-1.73 1.43-4 1.43h-22.55q-1.48 0-2.76-0.64t-2.12-1.68-1.23-2.42q-0.35-1.38-0.05-2.86zm49.97-18.89 5.77 1.73-0.74 3.75h18.45l-1.48 7.5h-18.5l-0.79 4.09q-0.1 0.54 0.25 0.99 0.35 0.39 0.89 0.39h20.42l-1.58 8.04h-25.21q-1.38 0-2.57-0.54-1.13-0.59-1.92-1.53-0.74-0.99-1.09-2.22-0.35-1.28-0.1-2.61l5.53-27.63h32.26l-1.63 8.04zm33.2-8.04h35.22l-1.63 8.04h-17.61l5.77 1.73-4.98 24.77h-11.49l5.28-26.49h-12.19zm38.83 0h35.22l-1.63 8.04h-17.61l5.77 1.73-4.98 24.77h-11.48l5.28-26.49h-12.19zm70.94 0q1.33 0 2.47 0.59 1.18 0.54 1.97 1.53 0.79 0.94 1.13 2.17 0.35 1.23 0.05 2.57l-4.59 23.04q-0.39 2.07-2.02 3.35-1.58 1.28-3.65 1.28h-25.06q-1.38 0-2.57-0.54-1.13-0.59-1.92-1.53-0.74-0.99-1.09-2.22-0.35-1.28-0.1-2.61l4.64-22.99q0.39-2.07 1.97-3.35t3.65-1.28zm-27.18 8.04 5.77 1.73-3.06 15.34q-0.1 0.54 0.25 0.99 0.35 0.39 0.89 0.39h20.77l-5.72-1.73 3.06-15.34q0.1-0.54-0.25-0.94-0.35-0.44-0.89-0.44zm55.7 0 5.77 1.73-3.06 15.34q-0.1 0.54 0.25 0.99 0.35 0.39 0.89 0.39h13.52q0.89 0 1.13-0.94l0.49-2.52h10.36l-1.38 6.86q-0.39 2.07-1.97 3.35t-3.65 1.28h-25.7q-1.18 0-2.22-0.49t-1.73-1.33q-0.69-0.89-0.99-1.97-0.3-1.09-0.05-2.27l4.79-23.83q0.39-2.07 1.97-3.35t3.65-1.28h25.11q1.33 0 2.47 0.59 1.18 0.54 1.97 1.53 0.79 0.94 1.13 2.17 0.35 1.23 0.05 2.57l-0.94 4.64h-10.35l0.44-2.07q0.1-0.54-0.25-0.94-0.35-0.44-0.89-0.44zm70.35-8.04q1.33 0 2.47 0.59 1.18 0.54 1.97 1.53 0.79 0.94 1.13 2.17 0.35 1.23 0.05 2.57l-4.59 23.04q-0.39 2.07-2.02 3.35-1.58 1.28-3.65 1.28h-25.06q-1.38 0-2.57-0.54-1.13-0.59-1.92-1.53-0.74-0.99-1.09-2.22-0.35-1.28-0.1-2.61l4.64-22.99q0.39-2.07 1.97-3.35t3.65-1.28zm-27.18 8.04 5.77 1.73-3.06 15.34q-0.1 0.54 0.25 0.99 0.35 0.39 0.89 0.39h20.77l-5.72-1.73 3.06-15.34q0.1-0.54-0.25-0.94-0.35-0.44-0.89-0.44zm59.89 16.72h-12.63l-1.97 9.77h-10.36l6.91-34.53h33.25q1.38 0 2.52 0.59 1.18 0.54 1.92 1.53 0.79 0.94 1.13 2.17 0.35 1.23 0.1 2.57l-2.66 13.27q-0.39 2.02-1.97 3.35-1.58 1.28-3.65 1.28h-2.22l4.39 9.77h-10.36zm7.6-8.09q0.39 0 0.69-0.25 0.35-0.25 0.44-0.64l1.23-6.36q0.1-0.54-0.25-0.94-0.3-0.44-0.84-0.44h-24.27l5.72 1.73-1.38 6.91zm15.54 10.26 0.54-2.76h10.36l-0.2 0.94q-0.1 0.54 0.25 0.99 0.35 0.39 0.89 0.39h19.44l-5.77-1.73 0.54-2.66q0.1-0.54-0.25-0.94-0.35-0.44-0.89-0.44h-15.98q-1.48 0-2.76-0.64t-2.12-1.68-1.23-2.42q-0.35-1.38-0.05-2.86l1.58-8.04q0.44-2.22 2.17-3.65 1.78-1.43 4.05-1.43h22.79q1.48 0 2.76 0.64t2.12 1.68 1.23 2.42q0.39 1.33 0.1 2.81l-0.59 2.81h-10.36l0.2-0.94q0.1-0.54-0.25-0.94-0.35-0.44-0.89-0.44h-19.63l5.72 1.73-0.39 2.07q-0.1 0.54 0.25 0.99 0.35 0.39 0.89 0.39h13.07q1.48 0 2.42 0l0.94 0.05q1.43 0.1 2.57 0.79 1.18 0.64 1.97 1.68t1.13 2.37q0.35 1.28 0.05 2.71l-1.73 8.63q-0.44 2.22-2.22 3.65-1.73 1.43-4 1.43h-22.55q-1.48 0-2.76-0.64t-2.12-1.68-1.23-2.42q-0.35-1.38-0.05-2.86zm54.02-2.17-1.97 9.77h-10.36l5.97-29.9q0.39-2.07 1.97-3.35 1.63-1.28 3.7-1.28h23.93q1.38 0 2.52 0.59 1.18 0.54 1.92 1.53 0.79 0.94 1.13 2.17 0.35 1.23 0.05 2.57l-5.53 27.68h-10.36l1.97-9.77zm16.58-8.09 1.43-7.25q0.1-0.54-0.25-0.94-0.35-0.44-0.89-0.44h-19.63l5.72 1.73-1.38 6.91zm35.17-8.63 5.77 1.73-3.06 15.34q-0.1 0.54 0.25 0.99 0.35 0.39 0.89 0.39h13.52q0.89 0 1.13-0.94l0.49-2.52h10.36l-1.38 6.86q-0.39 2.07-1.97 3.35t-3.65 1.28h-25.7q-1.18 0-2.22-0.49t-1.73-1.33q-0.69-0.89-0.99-1.97-0.3-1.09-0.05-2.27l4.79-23.83q0.39-2.07 1.97-3.35t3.65-1.28h25.11q1.33 0 2.47 0.59 1.18 0.54 1.97 1.53 0.79 0.94 1.13 2.17 0.35 1.23 0.05 2.57l-0.94 4.64h-10.36l0.44-2.07q0.1-0.54-0.25-0.94-0.35-0.44-0.89-0.44zm70.35-8.04q1.33 0 2.47 0.59 1.18 0.54 1.97 1.53 0.79 0.94 1.13 2.17 0.35 1.23 0.05 2.57l-4.59 23.04q-0.39 2.07-2.02 3.35-1.58 1.28-3.65 1.28h-25.06q-1.38 0-2.57-0.54-1.13-0.59-1.92-1.53-0.74-0.99-1.09-2.22-0.35-1.28-0.1-2.61l4.64-22.99q0.39-2.07 1.97-3.35t3.65-1.28zm-27.18 8.04 5.77 1.73-3.06 15.34q-0.1 0.54 0.25 0.99 0.35 0.39 0.89 0.39h20.77l-5.72-1.73 3.06-15.34q0.1-0.54-0.25-0.94-0.35-0.44-0.89-0.44zm67.44 26.49h-9.77l-6.31-27.63h-6.12l5.72 1.73-5.38 25.9h-10.66l6.91-34.53h18.7l3.75 21.31 10.66-21.31h19.83l-6.91 34.53h-10.61l5.18-27.63zm67.44-9.77h-25.21l-1.92 9.77h-10.95l6.91-34.53h34.68q1.18 0 2.17 0.49 1.04 0.49 1.73 1.38 0.69 0.84 0.99 1.92 0.35 1.09 0.1 2.27l-2.81 14.06q-0.39 2.02-2.02 3.35-1.58 1.28-3.65 1.28zm-23.58-8.09h18.65q0.39 0 0.69-0.25t0.39-0.64l1.28-6.36q0.1-0.54-0.25-0.94-0.35-0.44-0.89-0.44h-24.27l5.77 1.73zm42.43-8.63 5.77 1.73-0.74 3.75h18.45l-1.48 7.5h-18.5l-0.79 4.09q-0.1 0.54 0.25 0.99 0.35 0.39 0.89 0.39h20.42l-1.58 8.04h-25.22q-1.38 0-2.57-0.54-1.13-0.59-1.92-1.53-0.74-0.99-1.09-2.22-0.35-1.28-0.1-2.61l5.53-27.63h32.26l-1.63 8.04zm33.2-8.04h35.22l-1.63 8.04h-17.61l5.77 1.73-4.98 24.77h-11.49l5.28-26.49h-12.19zm35.47 34.53 6.91-34.53h10.36l-1.63 8.04h-6.07l5.72 1.73-4.93 24.77zm51.01-26.49h-28.32l1.63-8.04h36.36v8.04l-23.58 16.72-8.19 1.73h28.32l-1.63 8.04h-36.36v-8.04l23.58-16.72zm11.64 26.49 6.91-34.53h10.36l-1.63 8.04h-6.07l5.72 1.73-4.93 24.77zm54.71-34.53q1.33 0 2.47 0.59 1.18 0.54 1.97 1.53 0.79 0.94 1.13 2.17 0.35 1.23 0.05 2.57l-4.59 23.04q-0.39 2.07-2.02 3.35-1.58 1.28-3.65 1.28h-25.06q-1.38 0-2.57-0.54-1.13-0.59-1.92-1.53-0.74-0.99-1.09-2.22-0.35-1.28-0.1-2.61l4.64-22.99q0.39-2.07 1.97-3.35t3.65-1.28zm-27.18 8.04 5.77 1.73-3.06 15.34q-0.1 0.54 0.25 0.99 0.35 0.39 0.89 0.39h20.77l-5.72-1.73 3.06-15.34q0.1-0.54-0.25-0.94-0.35-0.44-0.89-0.44zm70.6-8.04h10.36l-6.91 34.53h-17.81l-5.48-27.33h-6.12l5.77 1.73-5.13 25.6h-10.36l6.91-34.53h17.86l5.48 27.33zm20.67 8.04 5.77 1.73-0.74 3.75h18.45l-1.48 7.5h-18.5l-0.79 4.09q-0.1 0.54 0.25 0.99 0.35 0.39 0.89 0.39h20.42l-1.58 8.04h-25.21q-1.38 0-2.57-0.54-1.13-0.59-1.92-1.53-0.74-0.99-1.09-2.22-0.35-1.28-0.1-2.61l5.53-27.63h32.26l-1.63 8.04zm44.05 18.89 0.54-2.76h10.36l-0.2 0.94q-0.1 0.54 0.25 0.99 0.35 0.39 0.89 0.39h19.44l-5.77-1.73 0.54-2.66q0.1-0.54-0.25-0.94-0.35-0.44-0.89-0.44h-15.98q-1.48 0-2.76-0.64t-2.12-1.68-1.23-2.42q-0.35-1.38-0.05-2.86l1.58-8.04q0.44-2.22 2.17-3.65 1.78-1.43 4.05-1.43h22.79q1.48 0 2.76 0.64t2.12 1.68 1.23 2.42q0.39 1.33 0.1 2.81l-0.59 2.81h-10.36l0.2-0.94q0.1-0.54-0.25-0.94-0.35-0.44-0.89-0.44h-19.63l5.72 1.73-0.39 2.07q-0.1 0.54 0.25 0.99 0.35 0.39 0.89 0.39h13.07q1.48 0 2.42 0l0.94 0.05q1.43 0.1 2.57 0.79 1.18 0.64 1.97 1.68t1.13 2.37q0.35 1.28 0.05 2.71l-1.73 8.63q-0.44 2.22-2.22 3.65-1.73 1.43-4 1.43h-22.55q-1.48 0-2.76-0.64t-2.12-1.68-1.23-2.42q-0.35-1.38-0.05-2.86zm49.97-18.89 5.77 1.73-0.74 3.75h18.45l-1.48 7.5h-18.5l-0.79 4.09q-0.1 0.54 0.25 0.99 0.35 0.39 0.89 0.39h20.42l-1.58 8.04h-25.21q-1.38 0-2.57-0.54-1.13-0.59-1.92-1.53-0.74-0.99-1.09-2.22-0.35-1.28-0.1-2.61l5.53-27.63h32.26l-1.63 8.04zm43.91 16.72-1.97 9.77h-10.36l5.97-29.9q0.39-2.07 1.97-3.35 1.63-1.28 3.7-1.28h23.93q1.38 0 2.52 0.59 1.18 0.54 1.92 1.53 0.79 0.94 1.13 2.17 0.35 1.23 0.05 2.57l-5.53 27.68h-10.36l1.97-9.77zm16.58-8.09 1.43-7.25q0.1-0.54-0.25-0.94-0.35-0.44-0.89-0.44h-19.63l5.72 1.73-1.38 6.91zm14.55 10.26 0.54-2.76h10.36l-0.2 0.94q-0.1 0.54 0.25 0.99 0.35 0.39 0.89 0.39h19.44l-5.77-1.73 0.54-2.66q0.1-0.54-0.25-0.94-0.35-0.44-0.89-0.44h-15.98q-1.48 0-2.76-0.64t-2.12-1.68-1.23-2.42q-0.35-1.38-0.05-2.86l1.58-8.04q0.44-2.22 2.17-3.65 1.78-1.43 4.05-1.43h22.79q1.48 0 2.76 0.64t2.12 1.68 1.23 2.42q0.39 1.33 0.1 2.81l-0.59 2.81h-10.36l0.2-0.94q0.1-0.54-0.25-0.94-0.35-0.44-0.89-0.44h-19.63l5.72 1.73-0.39 2.07q-0.1 0.54 0.25 0.99 0.35 0.39 0.89 0.39h13.07q1.48 0 2.42 0l0.94 0.05q1.43 0.1 2.57 0.79 1.18 0.64 1.97 1.68t1.13 2.37q0.35 1.28 0.05 2.71l-1.73 8.63q-0.44 2.22-2.22 3.65-1.73 1.43-4 1.43h-22.55q-1.48 0-2.76-0.64t-2.12-1.68-1.23-2.42q-0.35-1.38-0.05-2.86zm77.16-26.94q1.33 0 2.47 0.59 1.18 0.54 1.97 1.53 0.79 0.94 1.13 2.17 0.35 1.23 0.05 2.57l-4.59 23.04q-0.39 2.07-2.02 3.35-1.58 1.28-3.65 1.28h-25.06q-1.38 0-2.57-0.54-1.13-0.59-1.92-1.53-0.74-0.99-1.09-2.22-0.35-1.28-0.1-2.61l4.64-22.99q0.39-2.07 1.97-3.35t3.65-1.28zm-27.18 8.04 5.77 1.73-3.06 15.34q-0.1 0.54 0.25 0.99 0.35 0.39 0.89 0.39h20.77l-5.72-1.73 3.06-15.34q0.1-0.54-0.25-0.94-0.35-0.44-0.89-0.44zm70.6-8.04h10.36l-6.91 34.53h-17.81l-5.48-27.33h-6.12l5.77 1.73-5.13 25.6h-10.36l6.91-34.53h17.86l5.48 27.33zm44.79 12.68q0.39 0 0.69-0.25 0.35-0.3 0.44-0.69l0.44-2.32q0.1-0.54-0.25-0.94-0.35-0.44-0.89-0.44h-16.48l1.63-8.04h21.21q1.38 0 2.52 0.59 1.18 0.54 1.92 1.53 0.79 0.94 1.13 2.17 0.35 1.23 0.1 2.57l-1.13 5.57q-0.3 1.58-1.58 2.66-1.28 1.04-2.91 1.04h0.74q1.09 0 1.97 0.49 0.94 0.44 1.58 1.23 0.64 0.74 0.89 1.73 0.3 0.99 0.05 2.02l-1.68 8.29q-0.39 2.07-1.97 3.35t-3.65 1.28h-24.86l1.63-8.04h18.25q0.39 0 0.69-0.25 0.35-0.3 0.44-0.69l0.94-4.59q0.1-0.54-0.25-0.94-0.35-0.44-0.89-0.44h-16.13l1.38-6.91z"/>
	<g fill="#fff">
		<g>
			<path id="serries" visibility="visible" d="m983.06 404.65 1.06-5.38h20.16l-0.38 1.82c-0.13 0.7 0.03 1.34 0.48 1.92 0.45 0.51 1.02 0.77 1.73 0.77h37.82l-11.23-3.36 1.06-5.18c0.13-0.7-0.03-1.31-0.48-1.82-0.45-0.58-1.02-0.86-1.73-0.86h-31.1c-1.92 0-3.71-0.42-5.38-1.25-1.66-0.83-3.04-1.92-4.13-3.26s-1.89-2.91-2.4-4.7c-0.45-1.79-0.48-3.65-0.1-5.57l3.07-15.65c0.58-2.88 1.98-5.25 4.22-7.1 2.3-1.86 4.93-2.78 7.87-2.78h44.35c1.92 0 3.71 0.42 5.38 1.25 1.66 0.83 3.04 1.92 4.13 3.26s1.89 2.91 2.4 4.7c0.51 1.73 0.58 3.55 0.19 5.47l-1.15 5.47h-20.16l0.38-1.82c0.13-0.7-0.03-1.31-0.48-1.82-0.45-0.58-1.02-0.86-1.73-0.86h-38.21l11.14 3.36-0.77 4.03c-0.13 0.7 0.03 1.34 0.48 1.92 0.45 0.51 1.02 0.77 1.73 0.77h30.14l1.82 0.1c1.86 0.13 3.52 0.64 4.99 1.54 1.54 0.83 2.82 1.92 3.84 3.26s1.76 2.88 2.21 4.61c0.45 1.66 0.48 3.42 0.1 5.28l-3.36 16.8c-0.58 2.88-2.02 5.25-4.32 7.1-2.24 1.86-4.83 2.78-7.78 2.78h-43.87c-1.92 0-3.71-0.42-5.38-1.25-1.66-0.83-3.04-1.92-4.13-3.26s-1.89-2.91-2.4-4.7c-0.45-1.79-0.48-3.65-0.1-5.57zm97.25-36.77 11.23 3.36-1.44 7.3h35.9l-2.88 14.59h-36l-1.54 7.97c-0.13 0.7 0.03 1.34 0.48 1.92 0.45 0.51 1.02 0.77 1.73 0.77h39.74l-3.07 15.65h-49.06c-1.79 0-3.46-0.35-4.99-1.06-1.47-0.77-2.72-1.76-3.74-2.98-0.96-1.28-1.66-2.72-2.11-4.32-0.45-1.66-0.51-3.36-0.19-5.09l10.75-53.76h62.78l-3.17 15.65zm107.62 32.54h-24.58l-3.84 19.01h-20.16l13.44-67.2h64.7c1.79 0 3.42 0.38 4.9 1.15 1.54 0.7 2.78 1.7 3.74 2.98 1.02 1.22 1.76 2.62 2.21 4.22s0.51 3.26 0.19 4.99l-5.18 25.82c-0.51 2.62-1.79 4.8-3.84 6.53-2.05 1.66-4.42 2.5-7.1 2.5h-4.32l24.19 53.76h-20.16zm14.78-15.74c0.51 0 0.96-0.16 1.34-0.48 0.45-0.32 0.74-0.74 0.86-1.25l2.4-12.38c0.13-0.7-0.03-1.31-0.48-1.82-0.38-0.58-0.93-0.86-1.63-0.86h-47.23l11.14 3.36-2.69 13.44zm29.57 34.75 13.44-67.2h20.16l-3.17 15.65h-11.81l11.14 3.36-9.6 48.19zm53.57-51.55 11.23 3.36-1.44 7.3h35.9l-2.88 14.59h-36l-1.54 7.97c-0.13 0.7 0.03 1.34 0.48 1.92 0.45 0.51 1.02 0.77 1.73 0.77h39.74l-3.07 15.65h-49.06c-1.79 0-3.46-0.35-4.99-1.06-1.47-0.77-2.72-1.76-3.74-2.98-0.96-1.28-1.66-2.72-2.11-4.32-0.45-1.66-0.51-3.36-0.19-5.09l10.75-53.76h62.78l-3.17 15.65zm56.93 36.77 1.06-5.38h20.16l-0.38 1.82c-0.13 0.7 0.03 1.34 0.48 1.92 0.45 0.51 1.02 0.77 1.73 0.77h37.82l-11.23-3.36 1.06-5.18c0.13-0.7-0.03-1.31-0.48-1.82-0.45-0.58-1.02-0.86-1.73-0.86h-31.1c-1.92 0-3.71-0.42-5.38-1.25-1.66-0.83-3.04-1.92-4.13-3.26s-1.89-2.91-2.4-4.7c-0.45-1.79-0.48-3.65-0.1-5.57l3.07-15.65c0.58-2.88 1.98-5.25 4.22-7.1 2.3-1.86 4.93-2.78 7.87-2.78h44.35c1.92 0 3.71 0.42 5.38 1.25 1.66 0.83 3.04 1.92 4.13 3.26s1.89 2.91 2.4 4.7c0.51 1.73 0.58 3.55 0.19 5.47l-1.15 5.47h-20.16l0.38-1.82c0.13-0.7-0.03-1.31-0.48-1.82-0.45-0.58-1.02-0.86-1.73-0.86h-38.21l11.14 3.36-0.77 4.03c-0.13 0.7 0.03 1.34 0.48 1.92 0.45 0.51 1.02 0.77 1.73 0.77h30.14l1.82 0.1c1.86 0.13 3.52 0.64 4.99 1.54 1.54 0.83 2.82 1.92 3.84 3.26s1.76 2.88 2.21 4.61c0.45 1.66 0.48 3.42 0.1 5.28l-3.36 16.8c-0.58 2.88-2.02 5.25-4.32 7.1-2.24 1.86-4.83 2.78-7.78 2.78h-43.87c-1.92 0-3.71-0.42-5.38-1.25-1.66-0.83-3.04-1.92-4.13-3.26s-1.89-2.91-2.4-4.7c-0.45-1.79-0.48-3.65-0.1-5.57z"/>
			<path id="series" visibility="hidden" d="m982.83 404.41 1.06-5.38h20.16l-0.38 1.82c-0.25 1.36 0.66 2.69 2.21 2.69h37.82l-11.23-3.36 1.06-5.18c0.13-0.7-0.03-1.31-0.48-1.82-0.45-0.58-1.02-0.86-1.73-0.86h-31.1c-7.16 0-13.65-6.51-12-14.78l3.07-15.65c1.2-5.98 6.29-9.89 12.1-9.89h44.35c5.93 0 10.41 3.98 11.9 9.22 1.03 3.66-0.2 7.35-0.96 10.94h-20.16c0.56-1.99 0.7-4.51-1.82-4.51h-38.21l11.14 3.36-0.77 4.03c-0.25 1.36 0.66 2.69 2.21 2.69h25.44c2.18-0.03 4.35-0.02 6.53 0.1 4.74 0.33 7.75 3.38 8.83 4.8 1.17 1.54 3.29 5.11 2.3 9.89l-3.36 16.8c-0.58 2.88-2.02 5.25-4.32 7.1-2.24 1.86-4.83 2.78-7.78 2.78h-43.87c-1.92 0-3.71-0.42-5.38-1.25-4.87-2.44-7.8-7.66-6.62-13.54zm97.25-36.77 11.23 3.36-1.44 7.3h35.9l-2.88 14.59h-36l-1.54 7.97c-0.25 1.36 0.66 2.69 2.21 2.69h39.74l-3.07 15.65h-49.06c-7.92 0-12.21-7.14-11.04-13.44l10.75-53.76h62.78l-3.17 15.65zm107.62 32.54h-24.58l-3.84 19.01h-20.16l13.44-67.2h64.7c7.22 0 12.28 6.66 11.04 13.34l-5.18 25.82c-1.01 5.16-5.32 9.02-10.94 9.02h-4.32l8.54 19.01h-20.16zm14.78-15.74c1.06 0 1.98-0.8 2.21-1.73l2.4-12.38c0.24-1.33-0.74-2.69-2.11-2.69h-47.23l11.14 3.36-2.69 13.44zm29.95 34.75 13.44-67.2h20.16l-3.17 15.65h-11.81l11.14 3.36-9.6 48.19zm53.57-51.55 11.23 3.36-1.44 7.3h35.9l-2.88 14.59h-36l-1.54 7.97c-0.13 0.7 0.03 1.34 0.48 1.92 0.45 0.51 1.02 0.77 1.73 0.77h39.74l-3.07 15.65h-49.06c-1.79 0-3.46-0.35-4.99-1.06-1.47-0.77-2.72-1.76-3.74-2.98-0.96-1.28-1.66-2.72-2.11-4.32-0.45-1.66-0.51-3.36-0.19-5.09l10.75-53.76h62.78l-3.17 15.65zm56.93 36.77 1.06-5.38h20.16l-0.38 1.82c-0.13 0.7 0.03 1.34 0.48 1.92 0.45 0.51 1.02 0.77 1.73 0.77h37.82l-11.23-3.36 1.06-5.18c0.13-0.7-0.03-1.31-0.48-1.82-0.45-0.58-1.02-0.86-1.73-0.86h-31.1c-1.92 0-3.71-0.42-5.38-1.25-1.66-0.83-3.04-1.92-4.13-3.26s-1.89-2.91-2.4-4.7c-0.45-1.79-0.48-3.65-0.1-5.57l3.07-15.65c0.58-2.88 1.98-5.25 4.22-7.1 2.3-1.86 4.93-2.78 7.87-2.78h44.35c1.92 0 3.71 0.42 5.38 1.25 1.66 0.83 3.04 1.92 4.13 3.26s1.89 2.91 2.4 4.7c0.51 1.73 0.58 3.55 0.19 5.47l-1.15 5.47h-20.16l0.38-1.82c0.13-0.7-0.03-1.31-0.48-1.82-0.45-0.58-1.02-0.86-1.73-0.86h-38.21l11.14 3.36-0.77 4.03c-0.13 0.7 0.03 1.34 0.48 1.92 0.45 0.51 1.02 0.77 1.73 0.77h30.14l1.82 0.1c1.86 0.13 3.52 0.64 4.99 1.54 1.54 0.83 2.82 1.92 3.84 3.26s1.76 2.88 2.21 4.61c0.45 1.66 0.48 3.42 0.1 5.28l-3.36 16.8c-0.58 2.88-2.02 5.25-4.32 7.1-2.24 1.86-4.83 2.78-7.78 2.78h-43.87c-1.92 0-3.71-0.42-5.38-1.25-1.66-0.83-3.04-1.92-4.13-3.26s-1.89-2.91-2.4-4.7c-0.45-1.79-0.48-3.65-0.1-5.57z"/>
		</g>
		<path d="m31.748 247.36c52.488-47.88 113.25-75.465 182.75-89.424 59.741-10.819 95.132-10.787 226.67 0.20598 124.97 12.104 249.38-9.3666 374-15.596 164.53-4.4652 332.59-10.666 496.67-2.9812 71.894 21.118 106.2-10.969 114.25-0.2604 3.9217 5.2178 11.821 41.64-110.92 23.449-104.12-16.987-532.43 1.9386-592 5.7655-155.26 9.9738-191.34 10.638-255.33 4.7019-90.988-9.2778-176.48-20.478-267.39 0.0565-94.321 23.184-145.42 66.862-168.7 74.083zm412.08-93.258c0-2.8955 11.531-13.651 18.596-17.345 14.85-7.7647 31.406-11.026 36.369-7.1637 5.9143 4.6016 6.3676 21.307 6.3676 26.333h-30.667c-25.06 0-30.667-0.33359-30.667-1.8246zm-48.685-8.8715c-0.4714-0.76274 2.576-2.8862 6.9213-4.8229 12.992-5.7905 22.569-10.321 51.764-24.487 15.4-7.4726 31-14.961 34.667-16.641 14.569-6.675 19.226-8.6864 20.114-8.6864 0.50991 0 3.3928-1.1668 6.4065-2.5928 16.751-7.9266 62.632-23.469 86.543-29.318 85.068-20.807 184.52-17.656 358.27 11.35 32.926 5.4969 78.606 13.606 94 16.687 3.6667 0.73385 9.9667 1.9715 14 2.7503 48.023 9.2732 66.136 13.19 108 23.354 19.433 4.7182 40.583 9.8244 47 11.347 6.4167 1.5229 11.667 3.1409 11.667 3.5957 0 0.45474-53.55 0.83989-119 0.85589-106.56 0.026-124.3 0.33833-169.67 2.9867-27.867 1.6267-54.179 3.3004-58.472 3.7194-14.587 1.4238-7.5107-2.2078 27.206-13.963 18.663-6.3192 35.845-12.358 38.183-13.42l4.2502-1.9301-4.2502-1.8322c-4.6039-1.9847-6.8668-2.6843-34.917-10.795-56.773-16.417-116.31-28.108-164.49-32.3-28.214-2.4548-69.754-0.74877-98.331 4.0383-42.518 7.1223-78.869 16.388-123.97 31.597-7.3977 2.4949-14.298 4.5566-15.333 4.5815-1.0356 0.0249-4.283 1.2045-7.2163 2.6214-2.9333 1.4169-6.1608 2.5965-7.172 2.6214-3.1031 0.0763-54.769 19.66-91.382 34.637-15.136 6.1919-13.712 5.8025-14.798 4.0454zm925.36-46.874c20.676-11.346 19.329 4.3996 64.368-25.271 25.032-16.49 38.034-20.745 44.286-14.492 4.1517 4.1517 4.1889 20.246-7.4066 30.453-10.675 10.162-24.79 10.952-38.036 14.721-18.739 5.4893-102.3 16.039-63.212-5.4102z"/>
		<g clip-path="url(#clipTire)">
			<path id="tire" d="m37.42 406.02c-0.33249 4.6273 1.1567 12.911-5.1404 13.333-7.204 0 0.41726-10.744-2.6326-10.744-0.56661 0-1.4693 2.4175-2.0059 5.3722-0.33518 5.3319-3.1792 5.624-7.5226 6.1204 0.87773-13.658 1.6222-13.308 17.301-14.082zm-13.356-3.1481c0.95336-2.8601 18.985-9.9544 25.231-9.9271l5.6549 0.0247-6.4662 3.0292c-3.5564 1.6661-7.119 3.9204-7.9169 5.0097-1.9153 2.6148-17.334 4.3558-16.503 1.8635zm21.735-12.936c-4.8941 1.4847-17.227 2.4064-12.903 0.96434 1.5688-0.6486 4.0625-0.56681 4.0279-2.5362-0.36294-0.58726-3.6948-0.10543-7.7058 1.1144-3.8865 1.1819-9.1022 2.0938-11.59 2.0264-5.0169-0.1094-0.88757-0.84026 1.0744-2.2319 1.6494-1.5677-2.8136-1.2423-9.0943 0.66302 4.0937-4.3726 6.7658-5.6776 1.337-8.3007 6.5044-0.23823 14.398 3.1926 18.276 3.2112 3.9229 0.0188 3.0104-2.0486-1.131-2.5626-3.3151-0.4114-3.2218-0.47391 0.95123-0.63715 6.5027-0.25438 14.394 3.1811 18.276 3.1997m-17.719-8.7743c-12.073-5.3517-13.25-7.5345-3.6906-6.843 5.5283 0.39989 7.451 1.0796 9.8557 3.4843 4.2994 4.2994 10.706 5.0256 10.706 6.578 0 2.2792-7.8429 0.78264-16.871-3.2193zm-9.99-10.127c-4.8005-0.33957-3.8148-4.8375-4.4016-8.5125-0.68163-4.1238-0.60597-4.2412 2.7338-4.2412 6.9422 0 3.0412 11.31 6.1213 11.31 1.6108-2.9024 0.0295-8.0086-0.42452-11.31 7.2936 0 7.8263 0.22863 8.1292 10.32 0.029 5.3651-8.53 2.837-12.158 2.4334z"/>
			<use transform="translate(18)" xlink:href="#tire"/>
			<use transform="translate(36)" xlink:href="#tire"/>
			<use transform="translate(54)" xlink:href="#tire"/>
			<use transform="translate(72)" xlink:href="#tire"/>
			<use transform="translate(90)" xlink:href="#tire"/>
			<use transform="translate(108)" xlink:href="#tire"/>
			<use transform="translate(126)" xlink:href="#tire"/>
			<use transform="translate(144)" xlink:href="#tire"/>
			<use transform="translate(162)" xlink:href="#tire"/>
			<use transform="translate(180)" xlink:href="#tire"/>
			<use transform="translate(198)" xlink:href="#tire"/>
			<use transform="translate(216)" xlink:href="#tire"/>
			<use transform="translate(234)" xlink:href="#tire"/>
			<use transform="translate(252)" xlink:href="#tire"/>
			<use transform="translate(270)" xlink:href="#tire"/>
			<use transform="translate(288)" xlink:href="#tire"/>
			<use transform="translate(306)" xlink:href="#tire"/>
			<use transform="translate(324)" xlink:href="#tire"/>
			<use transform="translate(342)" xlink:href="#tire"/>
			<use transform="translate(360)" xlink:href="#tire"/>
			<use transform="translate(378)" xlink:href="#tire"/>
			<use transform="translate(396)" xlink:href="#tire"/>
			<use transform="translate(414)" xlink:href="#tire"/>
			<use transform="translate(432)" xlink:href="#tire"/>
			<use transform="translate(450)" xlink:href="#tire"/>
			<use transform="translate(468)" xlink:href="#tire"/>
			<use transform="translate(486)" xlink:href="#tire"/>
			<use transform="translate(504)" xlink:href="#tire"/>
			<use transform="translate(522)" xlink:href="#tire"/>
			<use transform="translate(540)" xlink:href="#tire"/>
			<use transform="translate(558)" xlink:href="#tire"/>
			<use transform="translate(576)" xlink:href="#tire"/>
			<use transform="translate(594)" xlink:href="#tire"/>
			<use transform="translate(612)" xlink:href="#tire"/>
			<use transform="translate(630)" xlink:href="#tire"/>
			<use transform="translate(648)" xlink:href="#tire"/>
			<use transform="translate(666)" xlink:href="#tire"/>
			<use transform="translate(684)" xlink:href="#tire"/>
			<use transform="translate(702)" xlink:href="#tire"/>
			<use transform="translate(720)" xlink:href="#tire"/>
			<use transform="translate(738)" xlink:href="#tire"/>
			<use transform="translate(756)" xlink:href="#tire"/>
			<use transform="translate(774)" xlink:href="#tire"/>
			<use transform="translate(792)" xlink:href="#tire"/>
			<use transform="translate(810)" xlink:href="#tire"/>
			<use transform="translate(828)" xlink:href="#tire"/>
			<use transform="translate(846)" xlink:href="#tire"/>
			<use transform="translate(864)" xlink:href="#tire"/>
			<use transform="translate(882)" xlink:href="#tire"/>
			<use transform="translate(900)" xlink:href="#tire"/>
			<use transform="translate(918)" xlink:href="#tire"/>
			<use transform="translate(936)" xlink:href="#tire"/>
			<use transform="translate(954)" xlink:href="#tire"/>
			<use transform="translate(972)" xlink:href="#tire"/>
		</g>
	</g>
</svg>